<?xml version="1.0" encoding="iso-8859-1"?>
<!-- Generator: Adobe Illustrator 19.0.0, SVG Export Plug-In . SVG Version: 6.00 Build 0)  -->
<svg version="1.1" id="Capa_1" xmlns="http://www.w3.org/2000/svg" xmlns:xlink="http://www.w3.org/1999/xlink" x="0px" y="0px"
	 viewBox="0 0 512 512" style="enable-background:new 0 0 512 512;" xml:space="preserve">
<g>
	<path style="fill:#F74B68;" d="M69.046,417.66L69.046,417.66c-10.387,0-18.807,8.42-18.807,18.807v18.807h37.614v-18.807
		C87.853,426.081,79.433,417.66,69.046,417.66z"/>
	<path style="fill:#F74B68;" d="M266.521,417.66L266.521,417.66c-10.387,0-18.807,8.42-18.807,18.807v18.807h37.614v-18.807
		C285.329,426.081,276.908,417.66,266.521,417.66z"/>
	<path style="fill:#F74B68;" d="M463.997,417.66L463.997,417.66c-10.387,0-18.807,8.42-18.807,18.807v18.807h37.614v-18.807
		C482.804,426.081,474.385,417.66,463.997,417.66z"/>
</g>
<polyline style="fill:#666666;" points="512,487.142 97.312,487.142 71.188,487.142 0,487.142 0,450.05 512,450.05 "/>
<g>
	<circle style="fill:#4D4D4D;" cx="409.046" cy="308.736" r="18.807"/>
	<circle style="fill:#4D4D4D;" cx="197.757" cy="312.675" r="18.807"/>
</g>
<path style="fill:#81A9C9;" d="M223.472,227.73l-66.646-95.181l-24.734-95.026c-1.856-7.128,4.288-13.786,11.543-12.506
	l33.979,5.991c6.073,1.071,11.472,4.511,15.009,9.562l78.519,112.137"/>
<g>
	<path style="fill:#A6C8E8;" d="M192.44,152.229l-23.191-85.202c-1.165-4.28-4.697-7.503-9.066-8.274l-23.652-4.17l26.265,100.95
		l22.939,4.045C189.986,160.328,193.575,156.397,192.44,152.229z"/>
	<path style="fill:#A6C8E8;" d="M501.125,275.158c-3.855,19.37-22.946,31.798-42.396,28.369L65.665,234.219
		c-35.841-6.32-60.677-39.304-56.832-75.496l2.749-25.881l7.919-74.7l31.985,5.64C58.393,65,64.219,69.62,66.98,76.067
		l18.821,43.953l324.718,57.256c21.814,3.846,40.462,17.918,50.146,37.84l8.191,16.85l3.118,0.55
		c9.827,1.732,18.016,7.283,23.313,14.848C500.736,255.144,503.135,265.053,501.125,275.158z"/>
</g>
<path style="fill:#81A9C9;" d="M463.841,278.626l-212.175-37.413l-112.287-19.799l-50.587-8.92l-18.718-3.301
	c-35.841-6.32-60.677-39.304-56.832-75.496l7.982-75.255l-1.725-0.304L8.83,158.72c-3.846,36.192,20.991,69.176,56.832,75.496
	l18.718,3.301l50.587,8.92l112.287,19.799l212.175,37.412c19.644,3.464,38.38-9.646,41.844-29.291
	c0.776-4.405,0.714-8.763-0.063-12.913C493.771,274.02,479.082,281.314,463.841,278.626z"/>
<path style="fill:#E6E6E6;" d="M468.855,231.964l-40.636-7.165c-13.964-2.462-23.296-15.789-20.833-29.753l3.134-17.772
	c7.769,1.37,15.14,4.039,21.838,7.809c12.116,6.804,22.071,17.197,28.307,30.031L468.855,231.964z"/>
<path style="fill:#F2F2F2;" d="M468.855,231.964l-18.122-3.195c-13.964-2.462-23.296-15.789-20.833-29.753l2.457-13.933
	c12.116,6.804,22.071,17.197,28.307,30.031L468.855,231.964z"/>
<path style="fill:#A6C8E8;" d="M286.896,238.482L139.529,341.669c-5.051,3.537-11.302,4.923-17.375,3.852l-33.978-5.991
	c-7.254-1.279-10.751-9.636-6.57-15.7l81.837-118.697"/>
<g>
	<path style="fill:#FFFFFF;" d="M99.639,172.888c-6.891-1.215-8.738-10.571-2.86-14.323c5.912-3.773,13.684,1.914,11.767,8.714
		C107.469,171.1,103.559,173.579,99.639,172.888z"/>
	<path style="fill:#FFFFFF;" d="M307.876,201.648c0.751-4.26,4.809-7.109,9.078-6.357l0,0c4.26,0.751,7.108,4.818,6.357,9.078l0,0
		c-0.751,4.26-4.818,7.108-9.078,6.357l0,0C309.962,209.973,307.125,205.909,307.876,201.648z M277.21,196.241
		c0.751-4.26,4.818-7.108,9.089-6.355l0,0c4.26,0.751,7.108,4.818,6.357,9.078l0,0c-0.751,4.26-4.818,7.108-9.078,6.357l0,0
		C279.307,204.568,276.46,200.501,277.21,196.241z M246.556,190.836c0.751-4.26,4.818-7.108,9.078-6.357l0,0
		c4.271,0.753,7.119,4.82,6.368,9.08l0,0c-0.751,4.26-4.819,7.108-9.09,6.355l0,0C248.653,199.163,245.805,195.096,246.556,190.836z
		 M215.902,185.431c0.751-4.26,4.818-7.108,9.078-6.357l0,0c4.271,0.753,7.108,4.818,6.357,9.078l0,0
		c-0.751,4.26-4.809,7.109-9.078,6.357l0,0C217.998,193.758,215.151,189.691,215.902,185.431z M185.247,180.026
		c0.751-4.26,4.819-7.108,9.078-6.357l0,0c4.26,0.751,7.108,4.818,6.357,9.078l0,0c-0.751,4.26-4.818,7.108-9.078,6.357l0,0
		C187.344,188.352,184.496,184.286,185.247,180.026z M154.593,174.62c0.751-4.26,4.819-7.108,9.078-6.357l0,0
		c4.26,0.751,7.108,4.818,6.357,9.078l0,0c-0.751,4.26-4.818,7.108-9.078,6.357l0,0C156.69,182.947,153.841,178.88,154.593,174.62z
		 M123.937,169.215c0.751-4.26,4.819-7.108,9.078-6.357l0,0c4.26,0.751,7.108,4.818,6.357,9.078l0,0
		c-0.751,4.26-4.818,7.108-9.078,6.357l0,0C126.035,177.542,123.186,173.475,123.937,169.215z"/>
	<path style="fill:#FFFFFF;" d="M344.887,216.132c-6.921-1.22-8.79-10.716-2.734-14.407c2.701-1.647,6.243-1.488,8.775,0.409
		c2.759,2.066,3.877,5.813,2.649,9.046C352.259,214.648,348.558,216.779,344.887,216.132z"/>
</g>
<g>
	<path style="fill:#81A9C9;" d="M177.552,236.675l-50.934,72.131c-2.559,3.624-6.98,5.445-11.349,4.674l-23.652-4.17l59.207-85.879
		l22.939,4.045C178.016,228.226,180.043,233.147,177.552,236.675z"/>
	<path style="fill:#81A9C9;" d="M30.668,136.207l-19.086-3.366l7.919-74.7l26.909,4.745l-0.95,61.103
		C45.34,131.746,38.308,137.554,30.668,136.207z"/>
</g>
<g>
</g>
<g>
</g>
<g>
</g>
<g>
</g>
<g>
</g>
<g>
</g>
<g>
</g>
<g>
</g>
<g>
</g>
<g>
</g>
<g>
</g>
<g>
</g>
<g>
</g>
<g>
</g>
<g>
</g>
</svg>
